<svg width="90" height="70" viewBox="0 0 90 70" fill="none" xmlns="http://www.w3.org/2000/svg">
<path d="M66.9756 61.7902C66.9756 61.7902 68.2719 63.6655 72.4006 66.297C72.7095 66.4915 73.0336 66.6924 73.375 66.8955C74.6713 67.6711 76.1944 68.4964 77.9941 69.3519L78.4262 58.3334C78.4262 58.3334 84.0435 58.7655 89.0126 56.605C88.4401 56.3198 85.9728 54.9911 82.4253 52.2408C82.1077 51.9967 81.7771 51.7374 81.4444 51.4674C79.8759 50.2057 78.1281 48.6868 76.2592 46.8828C73.4571 51.6359 66.9756 61.7902 66.9756 61.7902Z" fill="url(#paint0_linear_235_8442)"/>
<path d="M22.037 61.1418C22.037 61.1418 20.7407 63.0171 16.612 65.6486C16.3031 65.843 15.979 66.0439 15.6377 66.247C14.3414 67.0226 12.829 67.848 11.0185 68.7035L10.5864 57.685C10.5864 57.685 4.96914 58.1171 0 55.9566C0.572531 55.6714 3.03981 54.3427 6.58735 51.5924C6.90494 51.3483 7.23549 51.089 7.56821 50.8189C9.13673 49.5572 10.8846 48.0384 12.7534 46.2344C15.5556 50.9875 22.037 61.1418 22.037 61.1418Z" fill="url(#paint1_linear_235_8442)"/>
<path d="M16.6116 65.649C16.3027 65.8434 15.9786 66.0443 15.6372 66.2474C14.8659 63.7434 11.7915 58.2125 10.586 56.6051C9.73758 55.4518 8.79838 54.3681 7.77735 53.3644C7.37765 52.9647 6.89586 52.1545 6.58691 51.5928C6.90451 51.3487 7.23506 51.0894 7.56778 50.8193C7.96099 51.4416 8.55728 52.3727 9.08012 53.1483C9.94432 54.4446 15.3456 61.3582 15.9937 62.6545C16.4193 63.5144 16.5619 64.8474 16.6116 65.649Z" fill="#9925E8"/>
<path d="M44.5059 0C63.8358 0 79.5059 15.67 79.5059 35C79.5059 54.33 63.8358 70 44.5059 70C25.1759 70 9.50586 54.33 9.50586 35C9.50586 15.67 25.1759 0 44.5059 0ZM44.5059 8.42578C29.8294 8.42579 17.9316 20.3235 17.9316 35C17.9316 49.6765 29.8294 61.5742 44.5059 61.5742C59.1823 61.5742 71.0801 49.6765 71.0801 35C71.0801 20.3235 59.1823 8.42578 44.5059 8.42578Z" fill="#6C7E92"/>
<mask id="mask0_235_8442" style="mask-type:alpha" maskUnits="userSpaceOnUse" x="9" y="0" width="71" height="70">
<path d="M44.5059 0C63.8358 0 79.5059 15.67 79.5059 35C79.5059 54.33 63.8358 70 44.5059 70C25.1759 70 9.50586 54.33 9.50586 35C9.50586 15.67 25.1759 0 44.5059 0ZM44.5059 8.42578C29.8294 8.42579 17.9316 20.3235 17.9316 35C17.9316 49.6765 29.8294 61.5742 44.5059 61.5742C59.1823 61.5742 71.0801 49.6765 71.0801 35C71.0801 20.3235 59.1823 8.42578 44.5059 8.42578Z" fill="#6C7E92"/>
</mask>
<g mask="url(#mask0_235_8442)">
<g filter="url(#filter0_f_235_8442)">
<ellipse cx="23.1114" cy="11.9412" rx="7.99383" ry="16.2037" transform="rotate(42.5525 23.1114 11.9412)" fill="#F0F2F7"/>
</g>
<g filter="url(#filter1_f_235_8442)">
<ellipse cx="67.0925" cy="11.9416" rx="7.99383" ry="16.2037" transform="rotate(150 67.0925 11.9416)" fill="#F0F2F7"/>
</g>
<g filter="url(#filter2_f_235_8442)">
<ellipse cx="63.9928" cy="58.8077" rx="7.99383" ry="16.2037" transform="rotate(-135 63.9928 58.8077)" fill="#F0F2F7"/>
</g>
<g filter="url(#filter3_f_235_8442)">
<ellipse cx="23.3749" cy="55.7828" rx="7.99383" ry="16.2037" transform="rotate(-45 23.3749 55.7828)" fill="#889BAF"/>
</g>
</g>
<circle cx="44.5057" cy="34.9999" r="26.5741" fill="url(#paint2_linear_235_8442)"/>
<circle cx="44.5057" cy="34.9999" r="24.0741" stroke="url(#paint3_linear_235_8442)" stroke-width="5"/>
<path d="M44.5059 6.48145C60.2562 6.48146 73.0244 19.2497 73.0244 35C73.0244 50.7503 60.2562 63.5185 44.5059 63.5186C28.7555 63.5186 15.9873 50.7503 15.9873 35C15.9873 19.2497 28.7555 6.48145 44.5059 6.48145ZM44.5059 8.42578C29.8294 8.42578 17.9316 20.3235 17.9316 35C17.9316 49.6765 29.8294 61.5742 44.5059 61.5742C59.1823 61.5742 71.0801 49.6764 71.0801 35C71.0801 20.3236 59.1823 8.42579 44.5059 8.42578Z" fill="url(#paint4_linear_235_8442)"/>
<path d="M51.2016 47.6811C50.8383 47.6807 50.4807 47.5909 50.1602 47.4196L44.6985 44.5505C44.6259 44.5123 44.5451 44.4923 44.463 44.4923C44.381 44.4923 44.3001 44.5123 44.2275 44.5505L38.7658 47.4196C38.4454 47.5909 38.0878 47.6807 37.7244 47.6811C37.3987 47.68 37.0772 47.608 36.7821 47.4701C36.487 47.3322 36.2255 47.1317 36.0158 46.8825C35.806 46.6333 35.6531 46.3414 35.5676 46.0271C35.4821 45.7128 35.4661 45.3836 35.5207 45.0625L36.5643 38.9829C36.5782 38.9017 36.5722 38.8183 36.5466 38.74C36.521 38.6617 36.4766 38.5908 36.4173 38.5335L32.0013 34.2277C31.703 33.9362 31.492 33.5672 31.3922 33.1623C31.2924 32.7573 31.3077 32.3325 31.4364 31.9358C31.5651 31.5391 31.8021 31.1863 32.1207 30.9171C32.4392 30.6479 32.8266 30.473 33.2393 30.4122L39.3448 29.5264C39.4263 29.5142 39.5036 29.4824 39.5701 29.4339C39.6367 29.3854 39.6906 29.3215 39.7272 29.2477L42.4581 23.7147C42.6428 23.3407 42.9284 23.0258 43.2827 22.8056C43.6371 22.5854 44.0459 22.4688 44.463 22.4688C44.8802 22.4688 45.289 22.5854 45.6433 22.8056C45.9976 23.0258 46.2832 23.3407 46.468 23.7147L49.1988 29.2477C49.2354 29.3215 49.2893 29.3854 49.3559 29.4339C49.4225 29.4824 49.4998 29.5142 49.5812 29.5264L55.6868 30.4122C56.0994 30.473 56.4868 30.6479 56.8054 30.9171C57.1239 31.1863 57.3609 31.5391 57.4896 31.9358C57.6183 32.3325 57.6337 32.7573 57.5339 33.1623C57.434 33.5672 57.2231 33.9362 56.9247 34.2277L52.5087 38.5335C52.4494 38.5908 52.4051 38.6617 52.3795 38.74C52.3539 38.8183 52.3478 38.9017 52.3618 38.9829L53.4053 45.0625C53.4599 45.3836 53.4439 45.7128 53.3584 46.0271C53.2729 46.3414 53.12 46.6333 52.9103 46.8825C52.7005 47.1317 52.4391 47.3322 52.144 47.4701C51.8489 47.608 51.5273 47.68 51.2016 47.6811Z" fill="#053A4C"/>
<path d="M45.6937 24.0986L48.4246 29.6316C48.5234 29.8307 48.669 30.0029 48.8488 30.1334C49.0287 30.264 49.2374 30.349 49.4573 30.3813L55.5629 31.2693C55.8162 31.3061 56.0541 31.4131 56.2498 31.578C56.4455 31.743 56.5911 31.9594 56.6702 32.2029C56.7494 32.4463 56.7588 32.707 56.6975 32.9555C56.6362 33.204 56.5066 33.4304 56.3234 33.6091L51.9052 37.915C51.7461 38.0703 51.6273 38.262 51.5588 38.4736C51.4903 38.6851 51.4742 38.9101 51.5119 39.1292L52.5533 45.211C52.5971 45.4633 52.5694 45.7229 52.4731 45.9602C52.3769 46.1975 52.216 46.4032 52.0088 46.5537C51.8016 46.7042 51.5563 46.7936 51.3008 46.8117C51.0453 46.8299 50.7899 46.776 50.5635 46.6563L45.1126 43.7872C44.9155 43.683 44.696 43.6285 44.4731 43.6285C44.2501 43.6285 44.0306 43.683 43.8336 43.7872L38.3653 46.6563C38.1389 46.776 37.8835 46.8299 37.628 46.8117C37.3725 46.7936 37.1273 46.7042 36.9201 46.5537C36.7128 46.4032 36.552 46.1975 36.4557 45.9602C36.3595 45.7229 36.3317 45.4633 36.3755 45.211L37.4169 39.1292C37.4546 38.9101 37.4386 38.6851 37.3701 38.4736C37.3016 38.262 37.1827 38.0703 37.0237 37.915L32.6055 33.6091C32.4222 33.4304 32.2926 33.204 32.2313 32.9555C32.17 32.707 32.1795 32.4463 32.2586 32.2029C32.3377 31.9594 32.4833 31.743 32.679 31.578C32.8747 31.4131 33.1127 31.3061 33.366 31.2693L39.4715 30.3813C39.6914 30.349 39.9002 30.264 40.08 30.1334C40.2599 30.0029 40.4054 29.8307 40.5042 29.6316L43.2351 24.0986C43.348 23.8689 43.523 23.6754 43.7403 23.5401C43.9576 23.4047 44.2084 23.333 44.4644 23.333C44.7204 23.333 44.9712 23.4047 45.1885 23.5401C45.4058 23.6754 45.5808 23.8689 45.6937 24.0986Z" fill="url(#paint5_linear_235_8442)"/>
<path opacity="0.15" d="M71.9441 13.287C70.2995 15.2553 68.8033 16.7752 66.9784 18.5422C66.8432 18.6764 66.7081 18.8106 66.5729 18.9448C66.4828 19.0342 66.4152 19.1013 66.3251 19.1908C65.9871 19.5039 65.6492 19.8394 65.2887 20.1526C65.1535 20.2644 65.0409 20.3762 64.9057 20.5104C64.8156 20.5775 64.7255 20.667 64.6579 20.7341C64.5452 20.8459 64.4326 20.9354 64.3199 21.0249C52.3343 31.5597 37.1044 37.979 21.0184 39.1421C20.8607 39.1421 20.7255 39.1644 20.5678 39.1644C20.4552 39.1644 20.3425 39.1868 20.2299 39.1868C20.0496 39.1868 19.8919 39.2092 19.7117 39.2092C19.1259 39.2315 18.5402 39.2763 17.9544 39.2763C17.7742 39.2763 17.5714 39.2986 17.3912 39.2986C16.9406 39.321 16.49 39.321 16.0619 39.321C13.9667 39.321 11.8714 39.2539 9.75368 39.075C9.59598 37.7553 9.50586 36.3909 9.50586 35.0266C9.50586 15.6792 25.299 0 44.7644 0C53.5283 0 61.3421 3.36339 67.5151 8.64198C69.1147 10.0064 70.5924 11.6543 71.9441 13.287Z" fill="url(#paint6_linear_235_8442)"/>
<defs>
<filter id="filter0_f_235_8442" x="-48.3311" y="-60.166" width="142.885" height="144.214" filterUnits="userSpaceOnUse" color-interpolation-filters="sRGB">
<feFlood flood-opacity="0" result="BackgroundImageFix"/>
<feBlend mode="normal" in="SourceGraphic" in2="BackgroundImageFix" result="shape"/>
<feGaussianBlur stdDeviation="29.5" result="effect1_foregroundBlur_235_8442"/>
</filter>
<filter id="filter1_f_235_8442" x="-2.56445" y="-61.6533" width="139.313" height="147.189" filterUnits="userSpaceOnUse" color-interpolation-filters="sRGB">
<feFlood flood-opacity="0" result="BackgroundImageFix"/>
<feBlend mode="normal" in="SourceGraphic" in2="BackgroundImageFix" result="shape"/>
<feGaussianBlur stdDeviation="29.5" result="effect1_foregroundBlur_235_8442"/>
</filter>
<filter id="filter2_f_235_8442" x="-7.78613" y="-12.9717" width="143.558" height="143.559" filterUnits="userSpaceOnUse" color-interpolation-filters="sRGB">
<feFlood flood-opacity="0" result="BackgroundImageFix"/>
<feBlend mode="normal" in="SourceGraphic" in2="BackgroundImageFix" result="shape"/>
<feGaussianBlur stdDeviation="29.5" result="effect1_foregroundBlur_235_8442"/>
</filter>
<filter id="filter3_f_235_8442" x="-48.4043" y="-15.9961" width="143.559" height="143.558" filterUnits="userSpaceOnUse" color-interpolation-filters="sRGB">
<feFlood flood-opacity="0" result="BackgroundImageFix"/>
<feBlend mode="normal" in="SourceGraphic" in2="BackgroundImageFix" result="shape"/>
<feGaussianBlur stdDeviation="29.5" result="effect1_foregroundBlur_235_8442"/>
</filter>
<linearGradient id="paint0_linear_235_8442" x1="82.6392" y1="62.8705" x2="71.4046" y2="55.8489" gradientUnits="userSpaceOnUse">
<stop offset="0.01" stop-color="#9D00FF"/>
<stop offset="0.41" stop-color="#7B00DB"/>
<stop offset="0.53" stop-color="#9825E4"/>
<stop offset="0.62" stop-color="#6800B5"/>
<stop offset="1" stop-color="#400071"/>
</linearGradient>
<linearGradient id="paint1_linear_235_8442" x1="4.83302" y1="62.8594" x2="17.9537" y2="53.6708" gradientUnits="userSpaceOnUse">
<stop offset="0.01" stop-color="#9D00FF"/>
<stop offset="0.41" stop-color="#7B00DB"/>
<stop offset="0.53" stop-color="#9825E4"/>
<stop offset="0.62" stop-color="#6800B5"/>
<stop offset="1" stop-color="#400071"/>
</linearGradient>
<linearGradient id="paint2_linear_235_8442" x1="44.5057" y1="8.42578" x2="44.5057" y2="61.5739" gradientUnits="userSpaceOnUse">
<stop stop-color="#2A99A4"/>
<stop offset="0.484375" stop-color="#10667B"/>
<stop offset="1" stop-color="#184A61"/>
</linearGradient>
<linearGradient id="paint3_linear_235_8442" x1="44.5057" y1="8.42578" x2="44.5057" y2="61.5739" gradientUnits="userSpaceOnUse">
<stop stop-color="#3F879B"/>
<stop offset="1" stop-color="#062C3C"/>
</linearGradient>
<linearGradient id="paint4_linear_235_8442" x1="44.5058" y1="6.48145" x2="44.5058" y2="63.5185" gradientUnits="userSpaceOnUse">
<stop stop-color="#3C4E56"/>
<stop offset="1" stop-color="#ADBED2"/>
</linearGradient>
<linearGradient id="paint5_linear_235_8442" x1="44.4644" y1="23.5607" x2="44.4644" y2="43.9989" gradientUnits="userSpaceOnUse">
<stop offset="0.08" stop-color="#C8D0E5"/>
<stop offset="0.23" stop-color="#FAFAFA"/>
<stop offset="0.39" stop-color="#C8D1E2"/>
<stop offset="0.59" stop-color="#566B7C"/>
<stop offset="1" stop-color="#A9B8CF"/>
</linearGradient>
<linearGradient id="paint6_linear_235_8442" x1="26.004" y1="5.39563" x2="45.7758" y2="33.0703" gradientUnits="userSpaceOnUse">
<stop offset="0.5084" stop-color="white" stop-opacity="0"/>
<stop offset="1" stop-color="white"/>
</linearGradient>
</defs>
</svg>
