<svg width="64" height="54" viewBox="0 0 64 54" fill="none" xmlns="http://www.w3.org/2000/svg">
<path d="M54.6845 13.125V12.0313C54.6816 9.66123 53.9788 7.34484 52.6643 5.37277C51.3498 3.4007 49.4821 1.8608 47.2956 0.946303C45.1091 0.0318099 42.7013 -0.216536 40.3741 0.232429C38.047 0.681394 35.9043 1.80767 34.215 3.46992C34.1151 3.57064 34.0361 3.69015 33.9826 3.82156C33.9291 3.95297 33.9021 4.09367 33.9033 4.23555V28.4949C33.9038 28.6921 33.9576 28.8855 34.0591 29.0546C34.1605 29.2237 34.3058 29.3623 34.4795 29.4556C34.6532 29.5489 34.8489 29.5935 35.0459 29.5847C35.2429 29.5758 35.4339 29.5139 35.5986 29.4055C37.6786 28.0718 40.0949 27.3567 42.5658 27.3438C43.1377 27.3331 43.692 27.5421 44.1147 27.9276C44.5373 28.3131 44.7962 28.8459 44.838 29.4164C44.8536 29.7132 44.8086 30.01 44.7057 30.2888C44.6027 30.5676 44.4441 30.8225 44.2394 31.038C44.0347 31.2534 43.7882 31.4249 43.5151 31.542C43.2419 31.659 42.9477 31.7192 42.6505 31.7188C40.3299 31.7188 38.1043 32.6406 36.4633 34.2816C34.8224 35.9225 33.9005 38.1481 33.9005 40.4688V49.7328C33.9003 49.8964 33.9368 50.058 34.0073 50.2057C34.0778 50.3533 34.1805 50.4833 34.3079 50.5859C35.8602 51.8706 37.6879 52.78 39.6488 53.2433C41.6097 53.7067 43.651 53.7116 45.6141 53.2577C47.5773 52.8037 49.4092 51.9032 50.9677 50.626C52.5261 49.3488 53.769 47.7294 54.5997 45.8937C54.6834 45.7091 54.7141 45.5049 54.6884 45.3039C54.6627 45.1029 54.5817 44.9129 54.4544 44.7552C54.3271 44.5976 54.1584 44.4784 53.9673 44.411C53.7762 44.3435 53.5701 44.3306 53.372 44.3734C52.0087 44.6859 50.6145 44.8437 49.2158 44.8438H47.1021C46.5377 44.8507 45.9916 44.6441 45.5732 44.2652C45.1549 43.8864 44.8952 43.3634 44.8462 42.8012C44.8264 42.5019 44.8682 42.2018 44.9692 41.9195C45.0702 41.6371 45.2282 41.3785 45.4334 41.1598C45.6385 40.9411 45.8864 40.7669 46.1617 40.648C46.437 40.5291 46.7339 40.4681 47.0337 40.4688H49.2212C51.5067 40.4722 53.7587 39.9205 55.7837 38.8609C58.1818 37.612 60.1741 35.7051 61.5269 33.364C62.8797 31.0229 63.537 28.3447 63.4216 25.6433C63.3062 22.9419 62.423 20.3294 60.8755 18.1122C59.328 15.895 57.1804 14.1649 54.6845 13.125ZM51.4033 22.9688H50.3095C47.6988 22.9688 45.195 21.9316 43.3489 20.0856C41.5029 18.2395 40.4658 15.7357 40.4658 13.125V12.0313C40.4658 11.4511 40.6962 10.8947 41.1065 10.4845C41.5167 10.0742 42.0731 9.84375 42.6533 9.84375C43.2334 9.84375 43.7898 10.0742 44.2001 10.4845C44.6103 10.8947 44.8408 11.4511 44.8408 12.0313V13.125C44.8408 13.8432 44.9822 14.5543 45.257 15.2178C45.5319 15.8813 45.9347 16.4842 46.4425 16.992C47.4681 18.0176 48.8591 18.5938 50.3095 18.5938H51.4033C51.9834 18.5938 52.5398 18.8242 52.9501 19.2345C53.3603 19.6447 53.5908 20.2011 53.5908 20.7812C53.5908 21.3614 53.3603 21.9178 52.9501 22.328C52.5398 22.7383 51.9834 22.9688 51.4033 22.9688ZM20.7783 9.6683e-07C17.5885 0.00361955 14.5304 1.27236 12.2749 3.52787C10.0194 5.78338 8.75063 8.84148 8.74701 12.0313V13.125C6.25143 14.1655 4.10425 15.896 2.55726 18.1135C1.01028 20.331 0.127632 22.9436 0.0128265 25.645C-0.101979 28.3464 0.555818 31.0245 1.90908 33.3653C3.26234 35.706 5.25496 37.6125 7.65326 38.8609C9.67826 39.9205 11.9303 40.4722 14.2158 40.4688H16.3294C16.8947 40.4604 17.4422 40.6664 17.8617 41.0454C18.2813 41.4243 18.5418 41.9481 18.5908 42.5113C18.6106 42.8106 18.5688 43.1107 18.4678 43.393C18.3668 43.6754 18.2088 43.934 18.0036 44.1527C17.7985 44.3714 17.5506 44.5456 17.2753 44.6645C17 44.7834 16.7031 44.8444 16.4033 44.8438H14.2158C12.816 44.8443 11.4207 44.6856 10.0568 44.3707C9.85884 44.3275 9.65281 44.3402 9.46164 44.4072C9.27047 44.4743 9.10168 44.5931 8.97409 44.7505C8.8465 44.9078 8.76512 45.0975 8.73903 45.2984C8.71294 45.4993 8.74315 45.7035 8.82631 45.8883C9.65683 47.7245 10.8996 49.3444 12.4581 50.6221C14.0165 51.8998 15.8486 52.801 17.812 53.2554C19.7753 53.7099 21.817 53.7055 23.7784 53.2425C25.7398 52.7795 27.568 51.8704 29.1208 50.5859C29.2482 50.4833 29.351 50.3533 29.4215 50.2057C29.492 50.058 29.5285 49.8964 29.5283 49.7328V40.4688C29.5283 38.1481 28.6064 35.9225 26.9654 34.2816C25.3245 32.6406 23.0989 31.7188 20.7783 31.7188C20.4811 31.7192 20.1869 31.659 19.9137 31.542C19.6406 31.4249 19.3941 31.2534 19.1894 31.038C18.9847 30.8225 18.826 30.5676 18.7231 30.2888C18.6202 30.01 18.5752 29.7132 18.5908 29.4164C18.6326 28.8454 18.8919 28.3122 19.3151 27.9266C19.7384 27.541 20.2933 27.3324 20.8658 27.3438C23.3366 27.3567 25.7529 28.0718 27.833 29.4055C27.9976 29.5139 28.1886 29.5758 28.3856 29.5847C28.5826 29.5935 28.7783 29.5489 28.952 29.4556C29.1258 29.3623 29.271 29.2237 29.3725 29.0546C29.4739 28.8855 29.5277 28.6921 29.5283 28.4949V4.23555C29.5292 3.94844 29.4173 3.67247 29.2165 3.46719C26.9705 1.24476 23.938 -0.00126704 20.7783 9.6683e-07ZM22.9658 13.125C22.9658 15.7357 21.9287 18.2395 20.0826 20.0856C18.2365 21.9316 15.7327 22.9688 13.122 22.9688H12.0283C11.4481 22.9688 10.8917 22.7383 10.4815 22.328C10.0712 21.9178 9.84076 21.3614 9.84076 20.7812C9.84076 20.2011 10.0712 19.6447 10.4815 19.2345C10.8917 18.8242 11.4481 18.5938 12.0283 18.5938H13.122C13.8402 18.5938 14.5513 18.4523 15.2148 18.1775C15.8783 17.9026 16.4812 17.4998 16.989 16.992C17.4968 16.4842 17.8996 15.8813 18.1745 15.2178C18.4493 14.5543 18.5908 13.8432 18.5908 13.125V12.0313C18.5908 11.4511 18.8212 10.8947 19.2315 10.4845C19.6417 10.0742 20.1981 9.84375 20.7783 9.84375C21.3584 9.84375 21.9148 10.0742 22.3251 10.4845C22.7353 10.8947 22.9658 11.4511 22.9658 12.0313V13.125Z" fill="#3B82F6"/>
</svg>
