<svg width="21" height="21" viewBox="0 0 21 21" fill="none" xmlns="http://www.w3.org/2000/svg">
<path d="M20.9937 10.4993C20.9942 10.6958 20.9558 10.8904 20.8807 11.0719C20.8055 11.2534 20.6951 11.4182 20.5559 11.5568L11.5512 20.5624C11.2701 20.8418 10.89 20.9986 10.4937 20.9986C10.0974 20.9986 9.71723 20.8418 9.43619 20.5624L0.436189 11.5568C0.156813 11.2758 0 10.8956 0 10.4993C0 10.103 0.156813 9.72286 0.436189 9.44181L9.44088 0.436189C9.72192 0.156813 10.1021 0 10.4984 0C10.8947 0 11.2748 0.156813 11.5559 0.436189L20.5606 9.44181C20.699 9.58077 20.8085 9.74576 20.8829 9.92726C20.9572 10.1088 20.9949 10.3032 20.9937 10.4993Z" fill="url(#paint0_linear_229_6561)"/>
<defs>
<linearGradient id="paint0_linear_229_6561" x1="10.4969" y1="0" x2="10.4969" y2="20.9986" gradientUnits="userSpaceOnUse">
<stop stop-color="#3B82F6"/>
<stop offset="1" stop-color="#3B82F6" stop-opacity="0.5"/>
</linearGradient>
</defs>
</svg>
