<svg width="22" height="26" viewBox="0 0 22 26" fill="none" xmlns="http://www.w3.org/2000/svg">
<g clip-path="url(#clip0_229_6547)">
<g clip-path="url(#clip1_229_6547)">
<path d="M0.924072 14.4275L0.903306 7.10825C0.89898 5.47982 1.94682 4.27537 3.50949 4.53841C3.81839 4.59033 4.32457 4.7504 4.59107 4.89317L6.05423 5.67624L8.86635 2.13124C9.3384 1.53628 10.0563 1.18945 10.8158 1.18945C11.5753 1.18945 12.2932 1.53628 12.7652 2.13124L18.6231 9.51715C20.0076 11.1951 20.7654 13.3025 20.7663 15.478C20.7663 20.795 16.3042 25.0919 10.8158 25.0919C5.32741 25.0919 0.865234 20.795 0.865234 15.478C0.865234 15.1249 0.885135 14.7745 0.924072 14.4275Z" fill="#FACC15" stroke="white" stroke-width="1.73053"/>
<path d="M7.7985 14.7756C7.81101 14.7436 7.82758 14.7134 7.84782 14.6856L10.1408 11.5629C10.2914 11.3576 10.5308 11.2363 10.7854 11.2363C11.04 11.2363 11.2794 11.3576 11.43 11.5629L13.6131 14.5359C14.3132 15.2236 14.7084 16.1633 14.7102 17.1447C14.7102 19.2153 12.9667 20.8939 10.8165 20.8939C8.66636 20.8939 6.92285 19.2153 6.92285 17.1447C6.92285 16.2457 7.25165 15.4211 7.7985 14.7756Z" fill="#E3C035"/>
</g>
</g>
<defs>
<clipPath id="clip0_229_6547">
<rect width="21.6316" height="25.958" fill="white"/>
</clipPath>
<clipPath id="clip1_229_6547">
<rect width="21.6316" height="25.958" fill="white"/>
</clipPath>
</defs>
</svg>
