<svg width="70" height="70" viewBox="0 0 70 70" fill="none" xmlns="http://www.w3.org/2000/svg">
<path d="M26.25 0C23.8 0 21.525 0.875 19.95 2.45C18.375 4.025 17.5 6.3 17.5 8.75C17.5 11.2 19.075 12.95 19.95 15.05C20.2125 15.575 20.2125 16.45 20.2125 17.5H0V70H20.2125C20.2125 68.95 20.125 68.075 19.95 67.55C19.075 65.45 17.5 63.7 17.5 61.25C17.5 58.8 18.375 56.525 19.95 54.95C21.525 53.375 23.8 52.5 26.25 52.5C28.7 52.5 30.975 53.375 32.55 54.95C34.125 56.525 35 58.8 35 61.25C35 63.7 33.425 65.45 32.55 67.55C32.2875 68.075 32.2875 68.95 32.2875 70H52.5V49.7875C53.55 49.7875 54.425 49.875 54.95 50.05C57.05 50.925 58.8 52.5 61.25 52.5C63.7 52.5 65.975 51.625 67.55 50.05C69.125 48.475 70 46.2 70 43.75C70 41.3 69.125 39.025 67.55 37.45C65.975 35.875 63.7 35 61.25 35C58.8 35 57.05 36.575 54.95 37.45C54.425 37.7125 53.55 37.7125 52.5 37.7125V17.5H32.2875C32.2875 16.45 32.375 15.575 32.55 15.05C33.425 12.95 35 11.2 35 8.75C35 6.3 34.125 4.025 32.55 2.45C30.975 0.875 28.7 0 26.25 0Z" fill="#3B82F6"/>
</svg>
